<?xml version="1.0" encoding="UTF-8" standalone="no"?>
<svg
   viewBox="0 0 640 640"
   version="1.1"
   id="svg1"
   sodipodi:docname="bug-slash-solid-full.svg"
   inkscape:version="1.4.2 (f4327f4, 2025-05-13)"
   xmlns:inkscape="http://www.inkscape.org/namespaces/inkscape"
   xmlns:sodipodi="http://sodipodi.sourceforge.net/DTD/sodipodi-0.dtd"
   xmlns="http://www.w3.org/2000/svg"
   xmlns:svg="http://www.w3.org/2000/svg">
  <defs
     id="defs1" />
  <sodipodi:namedview
     id="namedview1"
     pagecolor="#ffffff"
     bordercolor="#000000"
     borderopacity="0.25"
     inkscape:showpageshadow="2"
     inkscape:pageopacity="0.0"
     inkscape:pagecheckerboard="0"
     inkscape:deskcolor="#d1d1d1"
     inkscape:zoom="1.721875"
     inkscape:cx="319.70962"
     inkscape:cy="320"
     inkscape:window-width="3440"
     inkscape:window-height="1369"
     inkscape:window-x="-8"
     inkscape:window-y="-8"
     inkscape:window-maximized="1"
     inkscape:current-layer="svg1" />
  <!--!Font Awesome Free 7.0.1 by @fontawesome - https://fontawesome.com License - https://fontawesome.com/license/free Copyright 2025 Fonticons, Inc.-->
  <path
     d="M39 39.1C48.4 29.7 63.6 29.7 72.9 39.1L273.8 240L376 240C390.2 240 403.7 242.8 416 248L524.8 166.4C538.9 155.8 559 158.7 569.6 172.8C580.2 186.9 577.3 207 563.2 217.6L465.4 290.9C470.7 299.8 474.7 309.6 477.2 320L576 320C593.7 320 608 334.3 608 352C608 369.7 593.7 384 576 384L480 384L480 416C480 425.5 479.2 434.7 477.6 443.8L601 567.1C610.4 576.5 610.4 591.7 601 601C591.6 610.3 576.4 610.4 567.1 601L39 73.1C29.7 63.7 29.7 48.5 39 39.1zM430.2 532C407 554.1 377.2 569.2 344 574.2L344 445.8L430.2 532zM296 397.8L296 574.2C244.8 566.5 201.5 534.5 178.3 490.3L115.2 537.6C101.1 548.2 81 545.3 70.4 531.2C59.8 517.1 62.7 497 76.8 486.4L160.2 423.9C160.1 421.3 160 418.7 160 416L160 384L64 384C46.3 384 32 369.7 32 352C32 334.3 46.3 320 64 320L162.8 320C166.1 306.1 172.1 293.3 180.4 282.2L296 397.8zM387.6 192L305.2 192L232.9 119.7C248.1 86.8 281.4 64 320 64C373 64 416 107 416 160L416 163.6C416 179.3 403.3 192 387.6 192z"
     id="path1"
     style="fill:#b3b3b3" />
</svg>
